<mxfile host="drawio-plugin" modified="2023-01-23T18:39:21.307Z" agent="5.0 (Windows NT 6.2; Win64; x64) AppleWebKit/537.36 (KHTML, like Gecko) Chrome/98.0.4758.102 Safari/537.36" etag="sU5Fxav39yip2WFwx3Y_" version="20.5.3" type="embed"><diagram name="Strona-1" id="SO2g3eldpW_Sj7GtcsTB"><mxGraphModel dx="745" dy="504" grid="1" gridSize="10" guides="1" tooltips="1" connect="1" arrows="1" fold="1" page="1" pageScale="1" pageWidth="827" pageHeight="1169" math="0" shadow="0"><root><mxCell id="0"/><mxCell id="1" parent="0"/><mxCell id="85UCDONC6zIQ1VrD757m-1" value="map" style="swimlane;fontStyle=0;childLayout=stackLayout;horizontal=1;startSize=26;fillColor=none;horizontalStack=0;resizeParent=1;resizeParentMax=0;resizeLast=0;collapsible=1;marginBottom=0;" parent="1" vertex="1"><mxGeometry y="670" width="140" height="156" as="geometry"/></mxCell><mxCell id="85UCDONC6zIQ1VrD757m-2" value="id" style="text;strokeColor=none;fillColor=none;align=left;verticalAlign=top;spacingLeft=4;spacingRight=4;overflow=hidden;rotatable=0;points=[[0,0.5],[1,0.5]];portConstraint=eastwest;" parent="85UCDONC6zIQ1VrD757m-1" vertex="1"><mxGeometry y="26" width="140" height="26" as="geometry"/></mxCell><mxCell id="85UCDONC6zIQ1VrD757m-60" value="level" style="text;strokeColor=none;fillColor=none;align=left;verticalAlign=top;spacingLeft=4;spacingRight=4;overflow=hidden;rotatable=0;points=[[0,0.5],[1,0.5]];portConstraint=eastwest;" parent="85UCDONC6zIQ1VrD757m-1" vertex="1"><mxGeometry y="52" width="140" height="26" as="geometry"/></mxCell><mxCell id="85UCDONC6zIQ1VrD757m-58" value="game_id" style="text;strokeColor=none;fillColor=none;align=left;verticalAlign=top;spacingLeft=4;spacingRight=4;overflow=hidden;rotatable=0;points=[[0,0.5],[1,0.5]];portConstraint=eastwest;" parent="85UCDONC6zIQ1VrD757m-1" vertex="1"><mxGeometry y="78" width="140" height="26" as="geometry"/></mxCell><mxCell id="85UCDONC6zIQ1VrD757m-50" value="width" style="text;strokeColor=none;fillColor=none;align=left;verticalAlign=top;spacingLeft=4;spacingRight=4;overflow=hidden;rotatable=0;points=[[0,0.5],[1,0.5]];portConstraint=eastwest;" parent="85UCDONC6zIQ1VrD757m-1" vertex="1"><mxGeometry y="104" width="140" height="26" as="geometry"/></mxCell><mxCell id="85UCDONC6zIQ1VrD757m-51" value="height" style="text;strokeColor=none;fillColor=none;align=left;verticalAlign=top;spacingLeft=4;spacingRight=4;overflow=hidden;rotatable=0;points=[[0,0.5],[1,0.5]];portConstraint=eastwest;" parent="85UCDONC6zIQ1VrD757m-1" vertex="1"><mxGeometry y="130" width="140" height="26" as="geometry"/></mxCell><mxCell id="85UCDONC6zIQ1VrD757m-9" value="mob" style="swimlane;fontStyle=0;childLayout=stackLayout;horizontal=1;startSize=26;fillColor=none;horizontalStack=0;resizeParent=1;resizeParentMax=0;resizeLast=0;collapsible=1;marginBottom=0;" parent="1" vertex="1"><mxGeometry x="540" y="428" width="140" height="104" as="geometry"/></mxCell><mxCell id="85UCDONC6zIQ1VrD757m-10" value="id" style="text;strokeColor=none;fillColor=none;align=left;verticalAlign=top;spacingLeft=4;spacingRight=4;overflow=hidden;rotatable=0;points=[[0,0.5],[1,0.5]];portConstraint=eastwest;" parent="85UCDONC6zIQ1VrD757m-9" vertex="1"><mxGeometry y="26" width="140" height="26" as="geometry"/></mxCell><mxCell id="85UCDONC6zIQ1VrD757m-69" value="cell_id" style="text;strokeColor=none;fillColor=none;align=left;verticalAlign=top;spacingLeft=4;spacingRight=4;overflow=hidden;rotatable=0;points=[[0,0.5],[1,0.5]];portConstraint=eastwest;" parent="85UCDONC6zIQ1VrD757m-9" vertex="1"><mxGeometry y="52" width="140" height="26" as="geometry"/></mxCell><mxCell id="85UCDONC6zIQ1VrD757m-27" value="health" style="text;strokeColor=none;fillColor=none;align=left;verticalAlign=top;spacingLeft=4;spacingRight=4;overflow=hidden;rotatable=0;points=[[0,0.5],[1,0.5]];portConstraint=eastwest;" parent="85UCDONC6zIQ1VrD757m-9" vertex="1"><mxGeometry y="78" width="140" height="26" as="geometry"/></mxCell><mxCell id="85UCDONC6zIQ1VrD757m-5" value="player" style="swimlane;fontStyle=0;childLayout=stackLayout;horizontal=1;startSize=30;fillColor=none;horizontalStack=0;resizeParent=1;resizeParentMax=0;resizeLast=0;collapsible=1;marginBottom=0;" parent="1" vertex="1"><mxGeometry x="580" y="610" width="100" height="178" as="geometry"><mxRectangle x="140" y="150" width="80" height="30" as="alternateBounds"/></mxGeometry></mxCell><mxCell id="85UCDONC6zIQ1VrD757m-24" value="id" style="text;strokeColor=none;fillColor=none;align=left;verticalAlign=top;spacingLeft=4;spacingRight=4;overflow=hidden;rotatable=0;points=[[0,0.5],[1,0.5]];portConstraint=eastwest;" parent="85UCDONC6zIQ1VrD757m-5" vertex="1"><mxGeometry y="30" width="100" height="26" as="geometry"/></mxCell><mxCell id="85UCDONC6zIQ1VrD757m-66" value="cell_id" style="text;strokeColor=none;fillColor=none;align=left;verticalAlign=top;spacingLeft=4;spacingRight=4;overflow=hidden;rotatable=0;points=[[0,0.5],[1,0.5]];portConstraint=eastwest;" parent="85UCDONC6zIQ1VrD757m-5" vertex="1"><mxGeometry y="56" width="100" height="26" as="geometry"/></mxCell><mxCell id="85UCDONC6zIQ1VrD757m-6" value="health" style="text;strokeColor=none;fillColor=none;align=left;verticalAlign=top;spacingLeft=4;spacingRight=4;overflow=hidden;rotatable=0;points=[[0,0.5],[1,0.5]];portConstraint=eastwest;" parent="85UCDONC6zIQ1VrD757m-5" vertex="1"><mxGeometry y="82" width="100" height="26" as="geometry"/></mxCell><mxCell id="85UCDONC6zIQ1VrD757m-7" value="attack" style="text;strokeColor=none;fillColor=none;align=left;verticalAlign=top;spacingLeft=4;spacingRight=4;overflow=hidden;rotatable=0;points=[[0,0.5],[1,0.5]];portConstraint=eastwest;" parent="85UCDONC6zIQ1VrD757m-5" vertex="1"><mxGeometry y="108" width="100" height="26" as="geometry"/></mxCell><mxCell id="85UCDONC6zIQ1VrD757m-8" value="name" style="text;strokeColor=none;fillColor=none;align=left;verticalAlign=top;spacingLeft=4;spacingRight=4;overflow=hidden;rotatable=0;points=[[0,0.5],[1,0.5]];portConstraint=eastwest;" parent="85UCDONC6zIQ1VrD757m-5" vertex="1"><mxGeometry y="134" width="100" height="22" as="geometry"/></mxCell><mxCell id="85UCDONC6zIQ1VrD757m-62" value="items" style="text;strokeColor=none;fillColor=none;align=left;verticalAlign=top;spacingLeft=4;spacingRight=4;overflow=hidden;rotatable=0;points=[[0,0.5],[1,0.5]];portConstraint=eastwest;" parent="85UCDONC6zIQ1VrD757m-5" vertex="1"><mxGeometry y="156" width="100" height="22" as="geometry"/></mxCell><mxCell id="85UCDONC6zIQ1VrD757m-29" value="cell" style="swimlane;fontStyle=0;childLayout=stackLayout;horizontal=1;startSize=26;fillColor=none;horizontalStack=0;resizeParent=1;resizeParentMax=0;resizeLast=0;collapsible=1;marginBottom=0;" parent="1" vertex="1"><mxGeometry x="300" y="350" width="140" height="156" as="geometry"/></mxCell><mxCell id="85UCDONC6zIQ1VrD757m-33" value="id" style="text;strokeColor=none;fillColor=none;align=left;verticalAlign=top;spacingLeft=4;spacingRight=4;overflow=hidden;rotatable=0;points=[[0,0.5],[1,0.5]];portConstraint=eastwest;" parent="85UCDONC6zIQ1VrD757m-29" vertex="1"><mxGeometry y="26" width="140" height="26" as="geometry"/></mxCell><mxCell id="85UCDONC6zIQ1VrD757m-31" value="mapID" style="text;strokeColor=none;fillColor=none;align=left;verticalAlign=top;spacingLeft=4;spacingRight=4;overflow=hidden;rotatable=0;points=[[0,0.5],[1,0.5]];portConstraint=eastwest;" parent="85UCDONC6zIQ1VrD757m-29" vertex="1"><mxGeometry y="52" width="140" height="26" as="geometry"/></mxCell><mxCell id="85UCDONC6zIQ1VrD757m-34" value="x" style="text;strokeColor=none;fillColor=none;align=left;verticalAlign=top;spacingLeft=4;spacingRight=4;overflow=hidden;rotatable=0;points=[[0,0.5],[1,0.5]];portConstraint=eastwest;" parent="85UCDONC6zIQ1VrD757m-29" vertex="1"><mxGeometry y="78" width="140" height="26" as="geometry"/></mxCell><mxCell id="85UCDONC6zIQ1VrD757m-35" value="y" style="text;strokeColor=none;fillColor=none;align=left;verticalAlign=top;spacingLeft=4;spacingRight=4;overflow=hidden;rotatable=0;points=[[0,0.5],[1,0.5]];portConstraint=eastwest;" parent="85UCDONC6zIQ1VrD757m-29" vertex="1"><mxGeometry y="104" width="140" height="26" as="geometry"/></mxCell><mxCell id="85UCDONC6zIQ1VrD757m-36" value="type" style="text;strokeColor=none;fillColor=none;align=left;verticalAlign=top;spacingLeft=4;spacingRight=4;overflow=hidden;rotatable=0;points=[[0,0.5],[1,0.5]];portConstraint=eastwest;" parent="85UCDONC6zIQ1VrD757m-29" vertex="1"><mxGeometry y="130" width="140" height="26" as="geometry"/></mxCell><mxCell id="85UCDONC6zIQ1VrD757m-38" style="edgeStyle=orthogonalEdgeStyle;rounded=0;orthogonalLoop=1;jettySize=auto;html=1;" parent="1" source="85UCDONC6zIQ1VrD757m-31" target="85UCDONC6zIQ1VrD757m-2" edge="1"><mxGeometry relative="1" as="geometry"/></mxCell><mxCell id="85UCDONC6zIQ1VrD757m-54" value="game" style="swimlane;fontStyle=0;childLayout=stackLayout;horizontal=1;startSize=26;fillColor=none;horizontalStack=0;resizeParent=1;resizeParentMax=0;resizeLast=0;collapsible=1;marginBottom=0;" parent="1" vertex="1"><mxGeometry x="360" y="780" width="140" height="52" as="geometry"/></mxCell><mxCell id="85UCDONC6zIQ1VrD757m-55" value="id" style="text;strokeColor=none;fillColor=none;align=left;verticalAlign=top;spacingLeft=4;spacingRight=4;overflow=hidden;rotatable=0;points=[[0,0.5],[1,0.5]];portConstraint=eastwest;" parent="85UCDONC6zIQ1VrD757m-54" vertex="1"><mxGeometry y="26" width="140" height="26" as="geometry"/></mxCell><mxCell id="85UCDONC6zIQ1VrD757m-59" style="edgeStyle=orthogonalEdgeStyle;rounded=0;orthogonalLoop=1;jettySize=auto;html=1;entryX=0;entryY=0.75;entryDx=0;entryDy=0;" parent="1" source="85UCDONC6zIQ1VrD757m-58" target="85UCDONC6zIQ1VrD757m-54" edge="1"><mxGeometry relative="1" as="geometry"><Array as="points"><mxPoint x="250" y="770"/><mxPoint x="250" y="819"/></Array></mxGeometry></mxCell><mxCell id="85UCDONC6zIQ1VrD757m-67" style="edgeStyle=orthogonalEdgeStyle;rounded=0;orthogonalLoop=1;jettySize=auto;html=1;entryX=1;entryY=0.5;entryDx=0;entryDy=0;" parent="1" source="85UCDONC6zIQ1VrD757m-66" target="85UCDONC6zIQ1VrD757m-33" edge="1"><mxGeometry relative="1" as="geometry"><Array as="points"><mxPoint x="730" y="679"/><mxPoint x="730" y="389"/></Array></mxGeometry></mxCell><mxCell id="85UCDONC6zIQ1VrD757m-70" style="edgeStyle=orthogonalEdgeStyle;rounded=0;orthogonalLoop=1;jettySize=auto;html=1;entryX=1;entryY=0.5;entryDx=0;entryDy=0;" parent="1" source="85UCDONC6zIQ1VrD757m-69" target="85UCDONC6zIQ1VrD757m-33" edge="1"><mxGeometry relative="1" as="geometry"/></mxCell></root></mxGraphModel></diagram></mxfile>